<svg width="40.000000" height="38.000000" viewBox="0 0 40 38" fill="none" xmlns="http://www.w3.org/2000/svg" xmlns:xlink="http://www.w3.org/1999/xlink">
	<desc>
			Created with Pixso.
	</desc>
	<defs/>
	<path d="M20 0C8.95 0 0 8.72 0 19.48C0 28.09 5.73 35.39 13.67 37.96C14.67 38.14 15.04 37.54 15.04 37.02C15.04 36.56 15.02 35.34 15.01 33.71C9.45 34.89 8.28 31.1 8.28 31.1C7.37 28.85 6.05 28.25 6.05 28.25C4.24 27.04 6.19 27.07 6.19 27.07C8.2 27.2 9.25 29.07 9.25 29.07C11.04 32.05 13.94 31.19 15.08 30.69C15.26 29.43 15.77 28.58 16.35 28.09C11.9 27.6 7.23 25.93 7.23 18.46C7.23 16.33 8.01 14.6 9.29 13.23C9.07 12.74 8.39 10.76 9.47 8.08C9.47 8.08 11.14 7.56 14.97 10.07C16.57 9.64 18.27 9.43 19.97 9.42C21.67 9.43 23.37 9.64 24.97 10.07C28.77 7.56 30.44 8.08 30.44 8.08C31.52 10.76 30.84 12.74 30.64 13.23C31.92 14.6 32.69 16.33 32.69 18.46C32.69 25.95 28.02 27.59 23.57 28.07C24.27 28.66 24.92 29.85 24.92 31.68C24.92 34.28 24.89 36.38 24.89 37.01C24.89 37.52 25.24 38.13 26.27 37.94C34.27 35.38 40 28.07 40 19.48C40 8.72 31.04 0 20 0Z" fill="#445964" fill-opacity="1.000000" fill-rule="nonzero"/>
</svg>
