<svg width="39.915680" height="39.916382" viewBox="0 0 39.9157 39.9164" fill="none" xmlns="http://www.w3.org/2000/svg" xmlns:xlink="http://www.w3.org/1999/xlink">
	<desc>
			Created with Pixso.
	</desc>
	<defs/>
	<path d="M19.96 9.7C14.3 9.7 9.72 14.29 9.72 19.95C9.72 25.6 14.31 30.19 19.96 30.19C25.62 30.19 30.2 25.6 30.2 19.95C30.2 14.29 25.61 9.7 19.96 9.7ZM19.96 26.59C16.29 26.59 13.31 23.62 13.31 19.95C13.31 16.27 16.29 13.3 19.96 13.3C23.63 13.3 26.61 16.27 26.61 19.95C26.61 23.62 23.63 26.59 19.96 26.59Z" fill="#445964" fill-opacity="1.000000" fill-rule="nonzero"/>
	<path d="M28.18 0.12C24.51 -0.05 15.41 -0.04 11.74 0.12C8.51 0.27 5.66 1.05 3.36 3.35C-0.48 7.19 0.02 12.36 0.02 19.95C0.02 27.71 -0.42 32.76 3.36 36.54C7.22 40.39 12.46 39.89 19.96 39.89C27.65 39.89 30.3 39.89 33.02 38.84C36.72 37.41 39.51 34.1 39.78 28.17C39.96 24.49 39.95 15.4 39.78 11.72C39.46 4.72 35.7 0.47 28.18 0.12ZM34 34C31.48 36.52 27.99 36.29 19.91 36.29C11.6 36.29 8.26 36.42 5.83 33.98C3.03 31.19 3.53 26.71 3.53 19.92C3.53 10.73 2.59 4.11 11.81 3.64C13.93 3.56 14.55 3.54 19.89 3.54L19.96 3.59C28.83 3.59 35.78 2.66 36.2 11.88C36.29 13.99 36.31 14.62 36.31 19.94C36.31 28.16 36.47 31.52 34 34Z" fill="#445964" fill-opacity="1.000000" fill-rule="nonzero"/>
	<path d="M33 9.3C33 10.62 31.93 11.69 30.61 11.69C29.29 11.69 28.21 10.62 28.21 9.3C28.21 7.98 29.29 6.91 30.61 6.91C31.93 6.91 33 7.98 33 9.3Z" fill="#445964" fill-opacity="1.000000" fill-rule="evenodd"/>
</svg>
