<svg width="39.915710" height="39.915710" viewBox="0 0 39.9157 39.9157" fill="none" xmlns="http://www.w3.org/2000/svg" xmlns:xlink="http://www.w3.org/1999/xlink">
	<desc>
			Created with Pixso.
	</desc>
	<defs/>
	<path d="M39.9 39.91L39.9 39.91L39.91 39.91L39.91 25.27C39.91 18.11 38.37 12.59 30 12.59C25.97 12.59 23.27 14.8 22.17 16.89L22.05 16.89L22.05 13.26L14.11 13.26L14.11 39.91L22.38 39.91L22.38 26.71C22.38 23.24 23.04 19.88 27.34 19.88C31.58 19.88 31.64 23.84 31.64 26.94L31.64 39.91L39.9 39.91Z" fill="#445964" fill-opacity="1.000000" fill-rule="nonzero"/>
	<path d="M0.65 13.26L8.93 13.26L8.93 39.91L0.65 39.91L0.65 13.26Z" fill="#445964" fill-opacity="1.000000" fill-rule="nonzero"/>
	<path d="M4.79 0C2.14 0 0 2.14 0 4.79C0 7.43 2.14 9.63 4.79 9.63C7.43 9.63 9.58 7.43 9.58 4.79C9.58 2.14 7.43 0 4.79 0L4.79 0Z" fill="#445964" fill-opacity="1.000000" fill-rule="nonzero"/>
</svg>
