<svg width="50.058594" height="55.000000" viewBox="0 0 50.0586 55" fill="none" xmlns="http://www.w3.org/2000/svg" xmlns:xlink="http://www.w3.org/1999/xlink">
	<desc>
			Created with Pixso.
	</desc>
	<defs/>
	<path id="Vector" d="M45.62 10.5L29.45 1.18C26.72 -0.4 23.33 -0.4 20.6 1.18L4.43 10.5C1.69 12.08 0 15.02 0 18.18L0 36.81C0 39.97 1.69 42.91 4.43 44.49L20.6 53.81C23.33 55.39 26.72 55.39 29.45 53.81L45.62 44.49C48.35 42.91 50.05 39.97 50.05 36.81L50.05 18.18C50.05 15.02 48.35 12.08 45.62 10.5ZM45.76 36.81C45.76 38.44 44.88 39.95 43.47 40.77L27.3 50.09C25.9 50.9 24.15 50.9 22.74 50.09L6.58 40.77C5.17 39.95 4.29 38.44 4.29 36.81L4.29 18.18C4.29 16.55 5.17 15.04 6.58 14.22L22.74 4.9C24.15 4.09 25.9 4.09 27.3 4.9L43.47 14.22C44.88 15.04 45.76 16.55 45.76 18.18L45.76 36.81Z" fill="#445964" fill-opacity="1.000000" fill-rule="nonzero"/>
	<path id="Vector" d="M22.98 25.85L15 19.1C14.1 18.34 12.74 18.45 11.98 19.35C11.21 20.26 11.32 21.62 12.23 22.38L18.27 27.5L12.23 32.61C11.32 33.37 11.21 34.73 11.98 35.64C12.74 36.54 14.1 36.65 15 35.89L22.98 29.14C24 28.28 23.99 26.71 22.98 25.85Z" fill="#445964" fill-opacity="1.000000" fill-rule="nonzero"/>
	<path id="Vector" d="M36.43 32.1L26.77 32.1C25.58 32.1 24.62 33.06 24.62 34.25C24.62 35.43 25.58 36.4 26.77 36.4L36.43 36.4C37.62 36.4 38.58 35.43 38.58 34.25C38.58 33.06 37.62 32.1 36.43 32.1Z" fill="#445964" fill-opacity="1.000000" fill-rule="nonzero"/>
</svg>
